<?xml version="1.0" encoding="UTF-8" standalone="no"?>
<!-- Created with Inkscape (http://www.inkscape.org/) -->

<svg
   xmlns:osb="http://www.openswatchbook.org/uri/2009/osb"
   xmlns:dc="http://purl.org/dc/elements/1.1/"
   xmlns:cc="http://creativecommons.org/ns#"
   xmlns:rdf="http://www.w3.org/1999/02/22-rdf-syntax-ns#"
   xmlns:svg="http://www.w3.org/2000/svg"
   xmlns="http://www.w3.org/2000/svg"
   xmlns:sodipodi="http://sodipodi.sourceforge.net/DTD/sodipodi-0.dtd"
   xmlns:inkscape="http://www.inkscape.org/namespaces/inkscape"
   width="102.07616"
   height="123.21837"
   id="svg2"
   version="1.1"
   inkscape:version="0.48.4 r9939"
   sodipodi:docname="signiture.svg">
  <defs
     id="defs4">
    <linearGradient
       id="linearGradient3807">
      <stop
         id="stop3809"
         offset="0"
         style="stop-color:#2682ff;stop-opacity:1;" />
      <stop
         id="stop3811"
         offset="1"
         style="stop-color:#2682ff;stop-opacity:0;" />
    </linearGradient>
    <linearGradient
       id="linearGradient3799">
      <stop
         style="stop-color:#4452ff;stop-opacity:1;"
         offset="0"
         id="stop3801" />
      <stop
         id="stop3813"
         offset="0.5"
         style="stop-color:#26cdff;stop-opacity:1;" />
      <stop
         style="stop-color:#264bff;stop-opacity:1;"
         offset="1"
         id="stop3803" />
    </linearGradient>
    <linearGradient
       id="linearGradient3789"
       osb:paint="gradient">
      <stop
         style="stop-color:#006fff;stop-opacity:1;"
         offset="0"
         id="stop3791" />
      <stop
         style="stop-color:#006fff;stop-opacity:0;"
         offset="1"
         id="stop3793" />
    </linearGradient>
  </defs>
  <sodipodi:namedview
     id="base"
     pagecolor="#ffffff"
     bordercolor="#666666"
     borderopacity="1.0"
     inkscape:pageopacity="0.0"
     inkscape:pageshadow="2"
     inkscape:zoom="2.8"
     inkscape:cx="52.412094"
     inkscape:cy="46.747618"
     inkscape:document-units="px"
     inkscape:current-layer="layer1"
     showgrid="false"
     fit-margin-top="2"
     fit-margin-left="2"
     fit-margin-right="2"
     fit-margin-bottom="2"
     inkscape:window-width="800"
     inkscape:window-height="820"
     inkscape:window-x="-8"
     inkscape:window-y="-8"
     inkscape:window-maximized="1" />
  <metadata
     id="metadata7">
    <rdf:RDF>
      <cc:Work
         rdf:about="">
        <dc:format>image/svg+xml</dc:format>
        <dc:type
           rdf:resource="http://purl.org/dc/dcmitype/StillImage" />
        <dc:title></dc:title>
      </cc:Work>
    </rdf:RDF>
  </metadata>
  <g
     inkscape:label="Layer 1"
     inkscape:groupmode="layer"
     id="layer1"
     transform="translate(-244.93661,-224.79074)">
    <path
       style="fill:#000000;fill-opacity:1;stroke:#000000;stroke-width:1;stroke-linecap:butt;stroke-linejoin:miter;stroke-miterlimit:4;stroke-opacity:1;stroke-dasharray:none"
       id="path6100"
       d="m 280.01344,269.74381 c 0.065,0.0818 0.12001,0.17276 0.19507,0.24549 0.39313,0.38096 0.86268,0.70292 1.28021,1.0563 0.36261,0.30689 0.71352,0.62741 1.07469,0.93601 1.29609,0.99882 2.54589,2.0538 3.87182,3.01343 1.35973,0.95479 2.76609,1.82835 4.24634,2.58153 1.14701,0.52427 2.33,0.97093 3.56176,1.24576 1.36175,0.39259 2.74554,0.52693 4.15521,0.4739 1.18388,0.002 2.34257,-0.2011 3.50972,-0.3613 0.91843,-0.23331 1.78491,-0.60662 2.71712,-0.79616 1.82235,-0.61201 5.34541,-2.81102 -2.0635,1.41562 1.67433,-1.00659 3.40364,-1.92641 5.06701,-2.94676 1.27846,-0.78424 -2.59403,1.50645 -3.90091,2.24233 -0.19751,0.11121 0.36315,-0.27146 0.54045,-0.41266 0.67865,-0.43357 1.2555,-0.98702 1.87446,-1.49548 0.60329,-0.49741 1.17788,-1.02079 1.72206,-1.58159 0.46632,-0.41027 0.84394,-0.89217 1.23532,-1.36873 0.29954,-0.3328 0.5476,-0.70526 0.78849,-1.08114 0,0 4.46162,-1.96458 4.46162,-1.96458 l 0,0 c -0.24087,0.38495 -0.46199,0.77905 -0.73846,1.14073 -0.43158,0.46489 -0.75204,1.00589 -1.24076,1.42007 -0.59412,0.52191 -1.09604,1.14464 -1.72786,1.62897 -0.22303,0.17393 -0.46468,0.32603 -0.67032,0.5202 -0.37462,0.35375 -0.70085,0.72906 -1.16635,0.97706 -0.1857,0.13059 -0.33698,0.30862 -0.53102,0.42646 -4.24296,2.57664 -7.21212,4.17591 -0.57202,0.37309 0.20197,-0.11566 -0.77048,0.51172 -0.5922,0.36986 -1.94101,1.1132 -4.065,2.68733 -6.35467,3.28188 -0.90612,0.22976 -1.77299,0.60323 -2.70275,0.73512 -1.16254,0.17084 -2.327,0.28341 -3.504,0.28355 -1.43542,-0.003 -2.8443,-0.18889 -4.23255,-0.56379 -1.25227,-0.30618 -2.46455,-0.76782 -3.61213,-1.35669 -1.46977,-0.79063 -2.85047,-1.72281 -4.21581,-2.68072 -1.34706,-0.96416 -2.66337,-1.96737 -3.95633,-3.00306 -0.91897,-0.76548 -1.87638,-1.48296 -2.7882,-2.2535 0,0 4.26849,-2.5012 4.26849,-2.5012 z"
       inkscape:connector-curvature="0" />
    <path
       style="fill:#000000;fill-opacity:1;stroke:#000000;stroke-width:1;stroke-linecap:butt;stroke-linejoin:miter;stroke-miterlimit:4;stroke-opacity:1;stroke-dasharray:none"
       id="path6102"
       d="m 272.42657,251.68294 c 1.51669,-1.34036 3.7317,-2.29887 5.28416,-3.17579 0.58234,-0.32894 1.2114,-0.58817 1.83055,-0.83642 1.3231,-0.47492 2.65622,-0.92924 4.02895,-1.23788 0.87435,-0.23805 1.68537,-0.14616 2.51987,0.15783 0.71395,0.22906 1.37075,0.66777 1.90767,1.18421 0.54213,0.54245 1.02679,1.12563 1.45992,1.75816 0.19482,0.21216 0.35676,0.45114 0.52613,0.68331 0,0 -4.21195,2.49824 -4.21195,2.49824 l 0,0 c -0.17911,-0.2347 -0.35131,-0.47427 -0.53401,-0.70621 -0.40082,-0.60624 -0.83884,-1.17717 -1.37488,-1.67254 -0.53486,-0.45361 -1.14259,-0.80724 -1.81954,-1.00286 -0.76439,-0.23904 -1.52364,-0.18445 -2.29717,0.0136 -1.34195,0.32181 -2.65735,0.75493 -3.93682,1.27143 -0.72066,0.32342 -0.5821,0.24949 -1.27797,0.60799 -0.19027,0.098 -0.75214,0.4086 -0.56792,0.29962 6.50521,-3.84836 4.35285,-2.62411 3.02514,-1.73244 0,0 -4.56213,1.8897 -4.56213,1.8897 z"
       inkscape:connector-curvature="0" />
    <path
       style="fill:#000000;fill-opacity:1;stroke:#000000;stroke-width:1;stroke-linecap:butt;stroke-linejoin:miter;stroke-miterlimit:4;stroke-opacity:1;stroke-dasharray:none"
       id="path6104"
       d="m 298.4701,254.22965 c 0.40336,-0.73074 0.82766,-1.44822 1.31002,-2.13248 0.64397,-0.87948 1.53376,-1.49762 2.42481,-2.1007 0.86539,-0.58836 1.68485,-1.23339 2.57865,-1.77983 0.49795,0.61472 4.03295,-2.74616 5.82142,-3.14872 0.24406,-0.0549 0.57762,-0.0466 0.8263,-0.0498 0.69093,-0.0157 1.31603,0.28322 1.94197,0.52863 0.65533,0.22689 1.34941,0.27188 2.03639,0.30325 0.60945,0.23144 1.17269,0.58784 1.69416,0.97627 0.67612,0.2759 0.58334,0.71216 0.39468,1.32862 0,0 -4.37848,2.05346 -4.37848,2.05346 l 0,0 c 0.22378,-0.57873 0.363,-0.39198 -0.15444,-0.75066 -0.47106,-0.31871 -0.94057,-0.68688 -1.51896,-0.76596 -0.72592,-0.0572 -1.45198,-0.15069 -2.13444,-0.42023 -0.57763,-0.22643 -1.16806,-0.43242 -1.79963,-0.36435 -1.85956,0.24757 -5.48636,2.99216 1.78175,-1.44056 -0.54699,0.35022 -0.26314,0.18393 -0.85264,0.49698 -0.61432,0.38484 -1.15097,0.88467 -1.74961,1.29159 -0.89999,0.52114 -1.79468,1.1329 -2.46032,1.94076 -0.52677,0.57427 -0.98676,1.30946 -1.22916,2.05057 0,0 -4.53247,1.98311 -4.53247,1.98311 z"
       inkscape:connector-curvature="0" />
    <path
       style="fill:#000000;fill-opacity:1;stroke:#000000;stroke-width:1;stroke-linecap:butt;stroke-linejoin:miter;stroke-miterlimit:4;stroke-opacity:1;stroke-dasharray:none"
       id="path6136"
       d="m 77.767933,85.917686 c -0.947547,-0.511607 -1.968637,-0.729257 -3.027652,-0.854156 -1.123205,0.02222 -2.265912,-0.02746 -3.379738,0.15474 -0.312963,0.05119 -1.506359,0.344216 -1.812028,0.41772 -1.944313,0.234957 -8.495962,4.123125 -1.4051,0.151527 -1.550048,0.91149 -2.707414,2.206736 -3.713653,3.668902 -0.809879,1.292603 -1.538959,2.631888 -2.266034,3.971998 -0.729915,1.272066 -1.328038,2.604692 -1.744031,4.010534 -0.277292,1.34836 -0.18834,2.733209 -0.147481,4.099249 0.01433,1.34044 -0.04858,2.23641 0.642509,3.42214 0.614528,0.95443 1.358752,1.81459 2.023171,2.73431 0.796603,0.93907 1.83324,1.64703 2.891041,2.26307 1.071138,0.55335 2.205562,0.95528 3.379898,1.22128 1.294353,0.23501 2.612931,0.2653 3.924754,0.27632 1.125203,-0.0741 2.235486,-0.2925 3.260607,-0.76584 1.469017,-0.74784 2.56688,-1.31842 -2.87199,1.67531 -0.233653,0.12861 0.45146,-0.28459 0.669141,-0.4387 0.752228,-0.53254 1.47687,-1.11382 2.202098,-1.68222 1.371804,-1.04252 2.604408,-2.25466 3.779965,-3.51056 1.065105,-1.25165 1.845895,-2.66538 2.326969,-4.23105 0.353234,-1.2405 0.502705,-2.48662 0.485967,-3.772155 0.03622,-1.07417 -0.25319,-2.105957 -0.605193,-3.109129 -0.363863,-0.83352 -0.775899,-1.674785 -1.347108,-2.388645 -0.420532,-0.659281 -0.959744,-0.91707 -1.702838,-1.033255 -0.718982,-0.05289 -1.423487,-0.26724 -2.052977,-0.615665 -0.258599,-0.16068 -0.542014,-0.255655 -0.830851,-0.342745 0,0 4.053999,-2.742368 4.053999,-2.742368 l 0,0 c 0.296165,0.116234 0.58767,0.240235 0.863779,0.40007 0.621971,0.283945 1.285174,0.432819 1.962052,0.519831 0.817772,0.205503 1.417097,0.608376 1.870917,1.336235 0.576246,0.77713 1.031478,1.64185 1.423063,2.524582 0.362053,1.054164 0.63741,2.154046 0.622255,3.275627 0.01431,1.333761 -0.04474,2.630952 -0.453588,3.914427 -0.462022,1.63942 -1.233083,3.10687 -2.287399,4.45003 -1.161394,1.28347 -2.377893,2.52986 -3.758339,3.58025 -2.502393,2.01923 -5.091446,3.92362 -8.112694,5.1543 -1.08753,0.39452 -2.223157,0.62129 -3.384862,0.61288 -1.330193,-0.047 -2.666059,-0.0993 -3.974069,-0.36764 -1.20181,-0.30721 -2.378267,-0.7176 -3.452782,-1.34739 -1.099467,-0.67981 -2.1931,-1.40429 -3.022537,-2.41158 -0.666411,-0.93703 -1.423322,-1.80763 -2.047719,-2.7749 -0.233542,-0.40838 -0.388223,-0.62461 -0.523063,-1.08377 -0.243657,-0.82971 -0.153561,-1.71342 -0.203483,-2.56351 -0.03371,-1.41201 -0.107293,-2.83733 0.106131,-4.238854 0.385125,-1.439199 0.960566,-2.808245 1.697641,-4.104484 0.729048,-1.35889 1.498376,-2.693377 2.272435,-4.025939 1.000068,-1.512466 2.120965,-2.9156 3.700325,-3.864795 3.045558,-1.806384 5.972616,-3.889779 9.47176,-4.684385 1.755447,-0.393441 3.535613,-0.611842 5.338739,-0.474491 1.132321,0.148578 2.232201,0.416418 3.280363,0.880521 0,0 -4.12237,2.712373 -4.12237,2.712373 z"
       inkscape:connector-curvature="0"
       transform="translate(244.93661,224.79074)" />
    <path
       style="fill:#000000;fill-opacity:1;stroke:#000000;stroke-width:1;stroke-linecap:butt;stroke-linejoin:miter;stroke-miterlimit:4;stroke-opacity:1;stroke-dasharray:none"
       id="path6138"
       d="m 74.358131,100.78581 c 0.129039,0.93211 0.280636,1.86181 0.477547,2.78217 0.273,1.13309 1.030821,2.00639 1.645656,2.96044 0.444632,0.68245 0.912996,1.34687 1.44816,1.96287 0.576662,0.58486 1.20899,1.12016 1.829685,1.65985 0.53709,0.55653 1.157184,1.01228 1.713724,1.55046 0.598436,0.48755 1.112557,1.05853 1.70237,1.55677 0.566224,0.49808 1.311232,0.62409 2.017866,0.81187 0.26486,0.0567 0.530784,0.10174 0.791398,0.1756 0,0 -4.088321,2.7852 -4.088321,2.7852 l 0,0 c -0.237028,-0.0839 -0.481676,-0.14125 -0.725671,-0.2013 -0.767234,-0.22143 -1.512518,-0.44362 -2.120978,-0.99554 -0.594868,-0.50356 -1.119913,-1.07812 -1.715987,-1.58021 -0.563758,-0.52149 -1.179751,-0.98284 -1.71034,-1.53848 -0.616719,-0.57442 -1.28299,-1.09361 -1.856251,-1.71252 -0.55358,-0.63333 -1.024814,-1.32828 -1.463826,-2.04482 -0.605901,-1.01888 -1.36292,-1.95668 -1.703506,-3.11459 -0.204671,-0.90059 -0.353397,-1.81412 -0.586633,-2.70803 0,0 4.345107,-2.34974 4.345107,-2.34974 z"
       inkscape:connector-curvature="0"
       transform="translate(244.93661,224.79074)" />
    <path
       style="fill:#000000;fill-opacity:1;stroke:#000000;stroke-width:1;stroke-linecap:butt;stroke-linejoin:miter;stroke-miterlimit:4;stroke-opacity:1;stroke-dasharray:none"
       id="path6144"
       d="m 283.57973,311.70441 c 0.16984,1.64016 0.13018,3.29232 0.14427,4.93868 0.10804,2.68494 -0.085,5.34717 -0.42952,8.00683 -0.16711,1.41551 -0.35901,2.8595 -0.90655,4.18795 -0.27918,0.67734 -0.48493,0.98286 -0.84808,1.60485 -0.87863,1.41928 -2.1094,2.53657 -3.30063,3.68171 -0.93362,0.85336 -1.83547,1.73886 -2.72296,2.63975 -0.27331,0.3066 -0.93368,0.78594 -0.54181,1.20486 0.0666,0.0175 0.13315,0.035 0.19973,0.0525 0,0 -4.10263,2.68411 -4.10263,2.68411 l 0,0 c -0.10089,-0.0718 -0.20179,-0.14353 -0.30269,-0.21529 -0.60765,-0.78919 -0.35883,-1.19948 0.26154,-1.88084 0.97152,-0.87026 1.85227,-1.8411 2.84945,-2.68592 1.16521,-1.15143 2.43562,-2.20771 3.35828,-3.58107 0.39078,-0.59793 0.60418,-0.88106 0.91355,-1.53585 0.61356,-1.29862 0.86447,-2.72587 1.04613,-4.13898 0.37822,-2.63257 0.64119,-5.26891 0.44248,-7.93335 -0.0509,-1.57119 -0.0832,-3.16371 -0.40422,-4.70761 0,0 4.34366,-2.32232 4.34366,-2.32232 z"
       inkscape:connector-curvature="0" />
    <path
       style="fill:#000000;fill-opacity:1;stroke:#000000;stroke-width:1;stroke-linecap:butt;stroke-linejoin:miter;stroke-miterlimit:4;stroke-opacity:1;stroke-dasharray:none"
       id="path6146"
       d="m 280.99808,307.1804 c 1.55028,-0.0584 3.08529,-0.22457 4.61945,-0.45501 2.72285,-0.39242 5.37547,-1.12658 8.04482,-1.7692 1.83167,-0.38019 3.66898,-0.71661 5.4814,-1.18212 0.78481,-0.19767 1.48618,-0.62741 2.27259,-0.80538 0,0 -3.86703,2.97443 -3.86703,2.97443 l 0,0 c -0.73088,0.25159 -1.44156,0.56554 -2.20128,0.729 -1.75931,0.39964 -3.544,0.66325 -5.30652,1.04719 -2.68414,0.64052 -5.36049,1.32521 -8.08942,1.75588 -1.62367,0.25692 -3.26804,0.38873 -4.87804,0.70575 0,0 3.92403,-3.00054 3.92403,-3.00054 z"
       inkscape:connector-curvature="0" />
    <path
       style="fill:#000000;fill-opacity:1;stroke:#000000;stroke-width:1;stroke-linecap:butt;stroke-linejoin:miter;stroke-miterlimit:4;stroke-opacity:1;stroke-dasharray:none"
       id="path6148"
       d="m 281.04223,320.40835 c 1.37989,-0.33134 2.75545,-0.67291 4.11787,-1.07399 1.65792,-0.43666 3.32689,-0.88885 4.9091,-1.55615 0.47114,-0.19924 0.93307,-0.57849 1.46534,-0.61776 0.31278,-0.0231 0.66612,0.12965 0.96049,0.21628 0.0962,0.0246 0.19181,0.0961 0.28849,0.0737 0.0749,-0.0174 0.21764,-0.21177 0.14983,-0.17547 -1.36962,0.73305 -2.71236,1.51524 -4.06854,2.27287 0,0 4.46005,-2.04362 4.46005,-2.04362 l 0,0 c -3.35245,2.16897 -2.78399,3.19055 -4.86451,2.65423 -0.82461,-0.17091 -1.38725,0.22862 -2.13342,0.56003 -1.59317,0.58697 -3.23613,1.02755 -4.87304,1.47387 -1.43923,0.42181 -2.89216,0.79363 -4.33855,1.18925 0,0 3.92689,-2.97323 3.92689,-2.97323 z"
       inkscape:connector-curvature="0" />
  </g>
</svg>
